<svg id="visual" viewBox="0 0 960 540" width="960" height="540" xmlns="http://www.w3.org/2000/svg" xmlns:xlink="http://www.w3.org/1999/xlink" version="1.1"><rect x="0" y="0" width="960" height="540" fill="#00213a"></rect><path d="M0 318L22.8 324.3C45.7 330.7 91.3 343.3 137 343.8C182.7 344.3 228.3 332.7 274 327.3C319.7 322 365.3 323 411.2 330.7C457 338.3 503 352.7 548.8 360.2C594.7 367.7 640.3 368.3 686 362.8C731.7 357.3 777.3 345.7 823 338.5C868.7 331.3 914.3 328.7 937.2 327.3L960 326L960 541L937.2 541C914.3 541 868.7 541 823 541C777.3 541 731.7 541 686 541C640.3 541 594.7 541 548.8 541C503 541 457 541 411.2 541C365.3 541 319.7 541 274 541C228.3 541 182.7 541 137 541C91.3 541 45.7 541 22.8 541L0 541Z" fill="#fa7268"></path><path d="M0 418L22.8 408.2C45.7 398.3 91.3 378.7 137 369.8C182.7 361 228.3 363 274 363.8C319.7 364.7 365.3 364.3 411.2 370.2C457 376 503 388 548.8 395.7C594.7 403.3 640.3 406.7 686 400.8C731.7 395 777.3 380 823 380.3C868.7 380.7 914.3 396.3 937.2 404.2L960 412L960 541L937.2 541C914.3 541 868.7 541 823 541C777.3 541 731.7 541 686 541C640.3 541 594.7 541 548.8 541C503 541 457 541 411.2 541C365.3 541 319.7 541 274 541C228.3 541 182.7 541 137 541C91.3 541 45.7 541 22.8 541L0 541Z" fill="#ef5f67"></path><path d="M0 442L22.8 444.5C45.7 447 91.3 452 137 453.7C182.7 455.3 228.3 453.7 274 446.8C319.7 440 365.3 428 411.2 426.3C457 424.7 503 433.3 548.8 435C594.7 436.7 640.3 431.3 686 425.3C731.7 419.3 777.3 412.7 823 407.3C868.7 402 914.3 398 937.2 396L960 394L960 541L937.2 541C914.3 541 868.7 541 823 541C777.3 541 731.7 541 686 541C640.3 541 594.7 541 548.8 541C503 541 457 541 411.2 541C365.3 541 319.7 541 274 541C228.3 541 182.7 541 137 541C91.3 541 45.7 541 22.8 541L0 541Z" fill="#e34c67"></path><path d="M0 436L22.8 444.2C45.7 452.3 91.3 468.7 137 469.8C182.7 471 228.3 457 274 456.5C319.7 456 365.3 469 411.2 472.7C457 476.3 503 470.7 548.8 469.5C594.7 468.3 640.3 471.7 686 474.2C731.7 476.7 777.3 478.3 823 477.8C868.7 477.3 914.3 474.7 937.2 473.3L960 472L960 541L937.2 541C914.3 541 868.7 541 823 541C777.3 541 731.7 541 686 541C640.3 541 594.7 541 548.8 541C503 541 457 541 411.2 541C365.3 541 319.7 541 274 541C228.3 541 182.7 541 137 541C91.3 541 45.7 541 22.8 541L0 541Z" fill="#d53867"></path><path d="M0 507L22.8 502.5C45.7 498 91.3 489 137 486.3C182.7 483.7 228.3 487.3 274 487.2C319.7 487 365.3 483 411.2 486C457 489 503 499 548.8 501.2C594.7 503.3 640.3 497.7 686 497.2C731.7 496.7 777.3 501.3 823 502.7C868.7 504 914.3 502 937.2 501L960 500L960 541L937.2 541C914.3 541 868.7 541 823 541C777.3 541 731.7 541 686 541C640.3 541 594.7 541 548.8 541C503 541 457 541 411.2 541C365.3 541 319.7 541 274 541C228.3 541 182.7 541 137 541C91.3 541 45.7 541 22.8 541L0 541Z" fill="#c62368"></path></svg>